<svg width="34" height="34" viewBox="0 0 34 34" fill="none" xmlns="http://www.w3.org/2000/svg">
<g clip-path="url(#clip0)">
<path d="M30.3183 0.824305C30.2483 0.425609 29.9438 0.109401 29.5479 0.0237989C29.1549 -0.0638781 28.7446 0.100581 28.515 0.436244C28.378 0.63676 18.2098 15.6204 14.7749 20.6518L12.9801 23.6061C10.8652 22.7184 8.34333 23.3845 6.97526 25.3386C5.69201 27.1707 5.84012 29.5632 7.1475 31.2436L6.25464 32.4319C5.93947 32.8832 6.04842 33.504 6.49874 33.8199C6.94906 34.1343 7.56928 34.0267 7.88679 33.5758L8.66602 32.5504C10.9749 33.8181 13.7241 33.0674 15.1357 31.0524C15.1357 31.0516 15.1357 31.0516 15.1357 31.0516C16.5261 29.0662 16.256 26.412 14.6275 24.7321L16.4509 21.7303C17.3995 20.3885 19.2609 20.0629 20.6046 21.0069C21.057 21.321 21.6765 21.2131 21.9916 20.7617L27.9013 12.3222C30.0831 9.2055 31.0102 4.74357 30.3183 0.824305ZM13.5036 29.9095C12.5599 31.2586 10.6912 31.5893 9.34098 30.643C7.99184 29.6975 7.66318 27.8306 8.60766 26.4805C9.18845 25.6517 10.1174 25.2081 11.06 25.2081C11.6514 25.2081 12.2496 25.3824 12.77 25.7471C14.1194 26.6927 14.448 28.5593 13.5036 29.9095Z" fill="#FEFEFD"/>
<path d="M27.088 25.3378C25.721 23.3866 23.1981 22.7194 21.0829 23.6063L20.7875 23.1199C20.3177 23.0576 19.863 22.9176 19.4684 22.6434C19.2495 22.4906 19.0376 22.4595 18.8965 22.4595C18.6402 22.4595 18.414 22.5785 18.2308 22.7484L19.4358 24.7321C17.8075 26.4119 17.5372 29.0664 18.9276 31.0518V31.0529C20.223 32.9013 22.6993 33.7441 24.984 32.7548L25.6201 33.576C25.9376 34.0271 26.5581 34.1345 27.0081 33.8201C27.4585 33.5042 27.5674 32.8834 27.2522 32.4321L26.6235 31.6209C28.2164 29.939 28.467 27.3082 27.088 25.3378ZM24.7231 30.6422C24.7226 30.6427 24.7218 30.6427 24.7213 30.6433C24.7208 30.6435 24.7205 30.644 24.7202 30.6443C23.3708 31.5872 21.5047 31.2593 20.5597 29.9097C19.6153 28.5595 19.9442 26.6929 21.2933 25.7474C22.6424 24.8018 24.5091 25.1315 25.4556 26.4807C26.3998 27.8306 26.0714 29.6965 24.7231 30.6422Z" fill="#FEFEFD"/>
<path d="M12.0717 20.7618C12.1249 20.8381 12.1967 20.89 12.2652 20.9463L13.2175 19.3777C14.5536 17.4317 15.9653 15.3759 15.8262 15.5788L5.54831 0.436332C5.31978 0.101706 4.91615 -0.0656062 4.51538 0.0238866C4.11928 0.109488 3.815 0.425696 3.74497 0.824393C3.05341 4.74366 3.98024 9.20559 6.16205 12.3223L12.0717 20.7618Z" fill="#FEFEFD"/>
</g>
<defs>
<clipPath id="clip0">
<rect width="34" height="34" fill="white"/>
</clipPath>
</defs>
</svg>
