<svg width="36" height="36" viewBox="0 0 36 36" fill="none" xmlns="http://www.w3.org/2000/svg">
<path d="M18.1923 20.5816C18.1392 21.2063 18.5632 24.5125 18.782 25.8089C18.8862 26.4231 19.1718 27.4237 19.0691 27.955C18.9223 28.6955 18.8799 29.6538 18.9607 30.2118C19.0117 30.5506 19.172 32.1134 18.9426 32.685C18.8225 32.9848 18.6025 34.5209 18.6025 34.5209C18.0293 35.9681 18.3528 35.8969 18.3528 35.8969C18.5303 36.1146 18.8342 35.914 18.8342 35.914C19.0657 36.0616 19.2261 35.8789 19.2261 35.8789C19.4248 36.0434 19.6565 35.8587 19.6565 35.8587C19.9062 35.9883 20.1378 35.7493 20.1378 35.7493C20.2812 35.8215 20.3162 35.7303 20.3162 35.7303C20.7465 35.7027 20.0762 34.3257 20.0762 34.3257C19.9156 33.089 20.2355 32.4006 20.2355 32.4006C21.283 29.294 21.3363 28.4696 20.9175 27.2988C20.7996 26.9608 20.7697 26.827 20.824 26.6803C20.9494 26.3416 20.858 24.9794 21.011 24.4385C21.3063 23.3953 21.5975 20.7496 21.7493 19.5152C21.9532 17.8524 21.0267 15.6229 21.0267 15.6229C20.8238 14.7156 21.1213 11.483 21.1213 11.483C21.5367 12.1294 21.5209 13.2705 21.5209 13.2705C21.4549 14.4673 22.4877 16.2964 22.4877 16.2964C22.9839 17.0522 23.1718 17.7693 23.1718 17.8226C23.1718 18.0403 23.1242 18.5674 23.1242 18.5674L23.1432 19.0265C23.1517 19.1434 23.2175 19.5459 23.2069 19.7404C23.1294 20.9377 23.3196 20.7125 23.3196 20.7125C23.4801 20.7125 23.6565 19.749 23.6565 19.749C23.6565 19.9975 23.5958 20.7413 23.7298 21.0218C23.8901 21.3565 24.0081 20.9644 24.0102 20.8857C24.0526 19.3613 24.1442 19.7607 24.1442 19.7607C24.2334 20.9974 24.3429 21.2768 24.5394 21.1801C24.6882 21.1091 24.5521 19.696 24.5521 19.696C24.807 20.5354 25.0004 20.669 25.0004 20.669C25.421 20.9644 25.1609 20.1486 25.1024 19.987C24.7912 19.1285 24.7816 18.8311 24.7816 18.8311C25.1705 19.6024 25.4636 19.5738 25.4636 19.5738C25.8429 19.4527 25.1321 18.3605 24.7156 17.8372C24.5031 17.5706 24.229 17.2136 24.1494 17.0016C24.0198 16.6425 23.9219 15.4882 23.9219 15.4882C23.8826 14.126 23.5459 13.5343 23.5459 13.5343C22.9701 12.6127 22.8618 10.8936 22.8618 10.8936L22.8363 7.99106C22.6344 6.01123 21.1756 5.99692 21.1756 5.99692C19.701 5.77742 19.4958 5.30109 19.4958 5.30109C19.1835 4.85162 19.362 3.99004 19.362 3.99004C19.6211 3.77926 19.7211 3.2197 19.7211 3.2197C20.1514 2.88976 20.1302 2.40697 19.9315 2.4122C19.772 2.41639 19.8082 2.28431 19.8082 2.28431C20.0772 0.11097 18.1478 0 18.1478 0H17.8533C17.8533 0 15.923 0.11097 16.1917 2.28378C16.1917 2.28378 16.2278 2.41604 16.0669 2.41168C15.8687 2.40644 15.8502 2.88923 16.2789 3.21918C16.2789 3.21918 16.3787 3.77856 16.638 3.98951C16.638 3.98951 16.8165 4.8511 16.5042 5.30056C16.5042 5.30056 16.2997 5.7769 14.8244 5.99639C14.8244 5.99639 13.3632 6.0107 13.1644 7.99054L13.1369 10.893C13.1369 10.893 13.0306 12.6122 12.4526 13.5338C12.4526 13.5338 12.1174 14.1256 12.0786 15.4876C12.0786 15.4876 11.9804 16.642 11.8513 17.0011C11.7726 17.212 11.4987 17.569 11.2844 17.8367C10.8642 18.3589 10.1581 19.4489 10.5359 19.5733C10.5359 19.5733 10.8306 19.6019 11.2179 18.8305C11.2179 18.8305 11.2099 19.1259 10.8991 19.9865C10.8381 20.1459 10.5783 20.9618 10.9991 20.6685C10.9991 20.6685 11.194 20.5347 11.4474 19.6954C11.4474 19.6954 11.3114 21.1086 11.4627 21.1796C11.6604 21.2764 11.7682 20.9969 11.8574 19.7602C11.8574 19.7602 11.9488 19.3608 11.9912 20.8852C11.9933 20.9639 12.1086 21.356 12.2697 21.0213C12.4056 20.7407 12.3445 19.9982 12.3445 19.7485C12.3445 19.7485 12.5189 20.712 12.6818 20.712C12.6818 20.712 12.8736 20.9372 12.7949 19.7399C12.7821 19.5443 12.8507 19.1429 12.8593 19.0259L12.8778 18.5669C12.8778 18.5669 12.83 18.041 12.83 17.822C12.83 17.7678 13.018 17.0517 13.5141 16.2958C13.5141 16.2958 14.5458 14.4659 14.4793 13.27C14.4793 13.27 14.465 12.1289 14.8805 11.4824C14.8805 11.4824 15.1753 14.7149 14.9756 15.6223C14.9756 15.6223 14.0475 17.8519 14.2522 19.5147C14.4029 20.7524 14.6936 23.3946 14.9895 24.438C15.1441 24.9779 15.0527 26.3397 15.1766 26.6797C15.2324 26.8275 15.2031 26.9636 15.083 27.2983C14.6665 28.469 14.7196 29.2936 15.7672 32.4001C15.7672 32.4001 16.0896 33.0884 15.9266 34.3252C15.9266 34.3252 15.2573 35.7022 15.686 35.7297C15.686 35.7297 15.7195 35.821 15.8645 35.7487C15.8645 35.7487 16.0961 35.9878 16.3463 35.8581C16.3463 35.8581 16.578 36.0431 16.776 35.8784C16.776 35.8784 16.9348 36.0611 17.1663 35.9135C17.1663 35.9135 17.4703 36.1185 17.6509 35.8964C17.6509 35.8964 17.9717 35.9675 17.4005 34.5204C17.4005 34.5204 17.1817 32.9862 17.0611 32.6845C16.8312 32.1131 16.9936 30.5469 17.0426 30.2112C17.1217 29.6501 17.0793 28.6941 16.9348 27.9545C16.8291 27.4244 17.1154 26.4236 17.2211 25.8084C17.4384 24.5132 17.8641 21.2068 17.8109 20.5811L17.9867 20.6429C18.1127 20.6432 18.1923 20.5816 18.1923 20.5816Z" fill="#FEFEFD"/>
</svg>
