<svg width="34" height="34" viewBox="0 0 34 34" fill="none" xmlns="http://www.w3.org/2000/svg">
<g clip-path="url(#clip0)">
<path d="M22.4604 3.52234L23.8692 4.9314L17.0853 11.7152L18.9639 13.5938L16.1461 16.4116L17.5551 17.8204L20.373 15.0026L22.2515 16.8811L29.0354 10.0973L30.4444 11.5064L31.8532 10.0973L23.8692 2.11328L22.4604 3.52234Z" fill="#DA241C"/>
<path d="M30.2094 0L28.8006 1.40906L29.9746 2.5831L28.5656 3.99216L29.9746 5.40096L31.3837 3.9919L32.5577 5.1662L33.9668 3.75714L30.2094 0Z" fill="#DA241C"/>
<path d="M17.399 24.7256C17.4586 24.7002 17.5188 24.6763 17.5787 24.6519C14.7303 23.7355 11.6382 23.7355 8.78949 24.6519C8.84941 24.6763 8.90959 24.7002 8.96925 24.7256C11.6872 25.8779 14.681 25.8779 17.399 24.7256Z" fill="#DA241C"/>
<path d="M18.1769 26.5603C16.5671 27.2427 14.8755 27.5841 13.1842 27.5841C11.4927 27.5841 9.80115 27.2427 8.19131 26.5603C6.84166 25.9878 5.42326 25.6978 3.97659 25.6978H0V26.1483L4.39708 30.3822C6.90184 32.7941 10.0429 34.0001 13.1842 34.0001C16.3253 34.0001 19.4666 32.7941 21.9711 30.3822L26.3682 26.1483V25.6978H22.3916C20.9449 25.6975 19.5268 25.9878 18.1769 26.5603Z" fill="#DA241C"/>
<path d="M20.3828 17.8106L17.5551 20.6386L14.6205 17.704C13.5445 18.0166 12.3951 17.9717 11.3404 17.5681C8.97392 16.6622 6.33531 17.1543 4.45415 18.8524L0 22.873V23.7049H3.01189C4.63573 23.7049 6.2357 23.4318 7.76746 22.893C11.2605 21.6648 15.1079 21.6648 18.6008 22.893C20.1325 23.4318 21.7325 23.7049 23.3566 23.7049H26.3682V22.873L21.9141 18.8524C21.4453 18.4293 20.9296 18.0812 20.3828 17.8106Z" fill="#DA241C"/>
</g>
<defs>
<clipPath id="clip0">
<rect width="34" height="34" fill="white"/>
</clipPath>
</defs>
</svg>
