<svg width="48" height="48" viewBox="0 0 48 48" fill="none" xmlns="http://www.w3.org/2000/svg">
<g clip-path="url(#clip0)">
<path d="M47 27H23.0278L28.5449 24.7139C29.0547 24.5029 29.2969 23.917 29.0859 23.4072C28.873 22.8955 28.2851 22.6552 27.7793 22.8662L22.2614 25.1526L30.7284 16.6864C31.1191 16.2958 31.1191 15.663 30.7284 15.2724C30.3378 14.8818 29.705 14.8818 29.3144 15.2724L20.8482 23.7377L23.1327 18.2197C23.3437 17.709 23.1015 17.124 22.5917 16.913C22.0819 16.703 21.4979 16.9453 21.285 17.4541L18.9998 22.9736V11C19 10.4473 18.5527 10 18 10C17.4473 10 17 10.4473 17 11V22.9737L14.7148 17.4542C14.5039 16.9454 13.9237 16.7042 13.4081 16.9131C12.8983 17.1241 12.6562 17.7091 12.8671 18.2198L15.1516 23.7377L6.68559 15.2725C6.29494 14.8818 5.66213 14.8818 5.27156 15.2725C4.88091 15.6632 4.88091 16.296 5.27156 16.6865L13.7386 25.1527L8.22075 22.8663C7.71291 22.6553 7.12697 22.8956 6.91406 23.4073C6.70312 23.9171 6.94528 24.503 7.45509 24.714L12.9722 27.0001H1.00003C0.447281 27 0 27.4473 0 28C0 28.5527 0.447281 29 1.00003 29H12.9722L7.45509 31.2861C6.94528 31.4971 6.70312 32.083 6.91406 32.5928C7.07419 32.9776 7.44534 33.21 7.83787 33.21C7.96678 33.21 8.09569 33.1856 8.22066 33.1338L13.7385 30.8473L5.27147 39.3135C4.88081 39.7041 4.88081 40.3369 5.27147 40.7275C5.46675 40.9228 5.72269 41.0205 5.97853 41.0205C6.23438 41.0205 6.49022 40.9228 6.68559 40.7275L15.1518 32.2622L12.8673 37.7802C12.6563 38.2909 12.8985 38.8759 13.4083 39.0869C13.5333 39.1386 13.6642 39.1631 13.7911 39.1631C14.1837 39.1631 14.5548 38.9307 14.7149 38.5459L17.0001 33.0264V45.0001C17.0001 45.5528 17.4473 46.0001 18.0001 46.0001C18.5528 46.0001 19.0001 45.5528 19.0001 45.0001V33.0264L21.2853 38.5459C21.4454 38.9307 21.8166 39.1631 22.2091 39.1631C22.336 39.1631 22.4669 39.1387 22.5919 39.0869C23.1017 38.8759 23.3438 38.2909 23.1329 37.7802L20.8484 32.2622L29.3146 40.7275C29.5099 40.9228 29.7658 41.0205 30.0217 41.0205C30.2775 41.0205 30.5333 40.9228 30.7287 40.7275C31.1194 40.3368 31.1194 39.704 30.7287 39.3135L22.2617 30.8473L27.7795 33.1338C27.9045 33.1855 28.0334 33.21 28.1623 33.21C28.5549 33.21 28.926 32.9776 29.0861 32.5928C29.2971 32.083 29.0549 31.4971 28.5451 31.2861L23.028 29H47.0002C47.5529 29 48.0002 28.5527 48.0002 28C48.0002 27.4473 47.5527 27 47 27ZM18 30C18.7311 30 19.3437 29.5866 19.6927 28.9999H20.8158C20.4016 30.1615 19.302 31 18 31C16.3457 31 15 29.6543 15 28C15 26.3457 16.3457 25 18 25C19.302 25 20.4016 25.8385 20.8158 27H19.6927C19.3438 26.4133 18.7311 25.9999 18 25.9999C16.8965 25.9999 16 26.8974 16 27.9999C16 29.1024 16.8965 30 18 30Z" fill="#FEFEFD"/>
</g>
<defs>
<clipPath id="clip0">
<rect width="48" height="48" fill="white"/>
</clipPath>
</defs>
</svg>
