<svg width="34" height="34" viewBox="0 0 34 34" fill="none" xmlns="http://www.w3.org/2000/svg">
<g clip-path="url(#clip0)">
<path d="M33.0643 31.1455V33.2595C33.0643 33.6685 32.7327 34 32.3238 34H1.67621C1.26729 34 0.935753 33.6685 0.935753 33.2595V31.1455H33.0643ZM4.40795 20.3539C5.68135 21.4731 7.89421 21.7426 9.41104 21.5196C9.87235 21.4518 10.5206 21.1286 11.207 20.7863C11.7487 20.5163 12.3451 20.2225 12.9788 19.9842C12.9704 19.1812 13.0228 18.2773 13.1533 17.2619H1.67621C1.26729 17.2619 0.935753 17.5935 0.935753 18.0024V19.3247C1.97462 19.291 3.38056 19.4511 4.40795 20.3539ZM26.6393 0.830804C26.6448 0.821733 26.6491 0.812662 26.6539 0.803407C26.6647 0.783414 26.6745 0.763422 26.6822 0.743059C26.6863 0.732693 26.69 0.722326 26.6933 0.71196C26.6998 0.691968 26.7048 0.67179 26.7087 0.651613C26.7106 0.641987 26.7128 0.632361 26.7141 0.622735C26.7174 0.597559 26.7189 0.572569 26.7187 0.547763C26.7187 0.543506 26.7193 0.539063 26.7193 0.534805C26.7183 0.505742 26.7146 0.47705 26.7091 0.448912C26.7074 0.440767 26.705 0.432807 26.703 0.424847C26.6982 0.404855 26.6926 0.385233 26.6856 0.365981C26.6822 0.35654 26.6784 0.347284 26.6745 0.338214C26.6671 0.320443 26.6585 0.303227 26.6495 0.286382C26.6448 0.277866 26.6404 0.269351 26.6354 0.261021C26.6239 0.242324 26.6113 0.224553 26.598 0.207153C26.5941 0.202154 26.5906 0.196601 26.5865 0.191788C26.5686 0.170315 26.5491 0.150137 26.5284 0.131441C26.5232 0.126813 26.5175 0.122925 26.5121 0.118483C26.496 0.104969 26.4794 0.0923815 26.4618 0.0809043C26.4538 0.0757211 26.4455 0.0710933 26.4371 0.0662803C26.421 0.0570246 26.4044 0.0485093 26.3874 0.0411047C26.3785 0.0372173 26.3698 0.0333299 26.3607 0.0299978C26.3418 0.0229635 26.3226 0.0175952 26.3028 0.0129673C26.2952 0.0111161 26.2879 0.00870966 26.2802 0.00741385C26.2528 0.00241576 26.225 -0.000175845 26.1965 9.26949e-06C26.1919 9.26949e-06 26.1872 0.000934843 26.1828 0.00111996C26.1591 0.00204553 26.1354 0.00482225 26.1113 0.00945011C26.1023 0.0113013 26.0932 0.0137078 26.0841 0.0161142C26.0632 0.0214826 26.0423 0.028702 26.0214 0.0372173C26.0127 0.0407345 26.0038 0.0440665 25.9951 0.0481391C25.966 0.0618375 25.937 0.0777574 25.9081 0.09812C24.2489 1.2673 22.2232 2.88687 20.3695 4.89685C20.1223 5.16489 19.8782 5.43979 19.6384 5.72153C19.3987 6.00328 19.1633 6.29168 18.9333 6.58694C17.4398 8.50547 16.1831 10.7052 15.5143 13.1468C15.4567 13.3571 15.4023 13.5628 15.3503 13.7655C15.3312 13.8397 15.3138 13.9116 15.2955 13.9849C15.2642 14.1096 15.2329 14.2344 15.2036 14.3564C15.1814 14.4486 15.1609 14.5387 15.1398 14.6294C15.1172 14.727 15.0946 14.8242 15.0733 14.9199C15.0507 15.0215 15.0291 15.1215 15.008 15.2209C14.9911 15.2995 14.9748 15.3777 14.9589 15.4549C14.9363 15.5646 14.9147 15.6731 14.8938 15.7803C14.8823 15.8397 14.8712 15.8984 14.8601 15.9571C14.8377 16.0767 14.8156 16.1953 14.7955 16.3116C14.7894 16.3467 14.7836 16.3812 14.7777 16.416C14.7279 16.7075 14.684 16.9902 14.6468 17.2618H14.6463C14.5271 18.1329 14.471 18.9008 14.4604 19.5794H14.4606C14.4543 19.9953 14.4649 20.3778 14.4889 20.7286C14.4891 20.7304 14.4891 20.7325 14.4893 20.7343C14.4973 20.8506 14.5069 20.9633 14.5178 21.0725C14.675 22.6477 15.1087 23.5214 15.3976 23.9668C15.4023 23.974 15.4071 23.9809 15.4119 23.9881C15.5974 24.268 15.7416 24.3724 15.7416 24.3724C15.9684 24.5767 16.242 24.7243 16.5426 24.798C16.5426 24.798 16.5426 24.798 16.5424 24.798C16.6068 24.8137 16.6725 24.8257 16.7392 24.8348C16.7462 24.8357 16.7531 24.837 16.7601 24.8378C16.8291 24.8463 16.8995 24.8515 16.9708 24.8515C16.9713 24.8515 16.9719 24.8515 16.9724 24.8515C17.0289 24.8515 17.0844 24.8478 17.1398 24.8426C17.1605 24.8405 17.1809 24.8379 17.2014 24.8354C17.2357 24.8309 17.2693 24.8254 17.3029 24.8191C17.3271 24.8144 17.3515 24.8104 17.3754 24.8048C17.4189 24.7948 17.4617 24.7832 17.5039 24.77C17.5061 24.7693 17.5085 24.7689 17.5109 24.7682H17.5107C18.2927 24.5236 18.8632 23.7628 18.8632 22.8607C18.8632 22.8607 18.858 22.4329 18.8763 21.7082C18.8763 21.7078 18.8763 21.7075 18.8763 21.7073C18.9148 20.1851 19.0574 17.3541 19.5681 14.4253C19.5696 14.4171 19.5709 14.409 19.5724 14.4008C19.5998 14.244 19.6283 14.0869 19.6579 13.9295C19.659 13.9238 19.6601 13.918 19.6612 13.9123C19.7206 13.5978 19.7845 13.2829 19.8532 12.9691C19.856 12.9562 19.8587 12.9432 19.8617 12.9303C19.8941 12.7825 19.9278 12.6352 19.9624 12.4882C19.9672 12.4673 19.9722 12.4466 19.9772 12.4258C20.0118 12.2805 20.0474 12.1356 20.084 11.9912C20.0885 11.9738 20.0929 11.9566 20.0973 11.9392C20.1736 11.6421 20.2547 11.3475 20.3406 11.0567C20.3463 11.0371 20.3521 11.0175 20.3578 10.998C20.3989 10.8607 20.4411 10.7244 20.4844 10.5889C20.4922 10.5645 20.5002 10.5401 20.5079 10.5156C20.5516 10.3809 20.5962 10.2472 20.6421 10.1147C20.6492 10.0945 20.6564 10.0745 20.6634 10.0543C20.7119 9.91586 20.7613 9.7785 20.8126 9.643C21.9681 6.58176 24.5512 3.24044 26.5782 0.91429C26.6023 0.887449 26.6219 0.859311 26.6393 0.830804ZM32.3238 17.2619H20.6632C20.5277 18.4809 20.4492 19.6072 20.4041 20.5239C22.3048 20.9161 24.3231 21.2206 25.9444 21.0089C27.2489 20.8387 28.1904 20.4491 29.1009 20.0724C30.3051 19.574 31.4452 19.1044 33.0643 19.3125V18.0024C33.0643 17.5935 32.7327 17.2619 32.3238 17.2619ZM29.6672 21.4409C28.7144 21.835 27.6345 22.2819 26.1362 22.4774C24.375 22.7069 22.3013 22.4166 20.3515 22.0244C20.3413 22.5307 20.3437 22.8285 20.3439 22.8432C20.3439 22.8491 20.3441 22.855 20.3441 22.8609C20.3441 24.7752 18.831 26.3326 16.9709 26.3326C16.1711 26.3326 15.3978 26.0395 14.7881 25.5062C14.6405 25.3851 14.416 25.1662 14.1777 24.8067C14.1694 24.7943 14.1613 24.7819 14.1531 24.7695C13.6935 24.0597 13.2698 23.0259 13.0813 21.5377C12.6654 21.7158 12.2581 21.9172 11.8679 22.1116C11.0728 22.5081 10.3216 22.8824 9.6267 22.9846C9.2374 23.0418 8.81664 23.0723 8.37995 23.0723C6.67894 23.0723 4.73227 22.6101 3.43054 21.4661C2.75006 20.868 1.7136 20.7747 0.935938 20.8074V29.6643H33.0646V20.8069C33.0319 20.8019 33.0009 20.7973 32.9673 20.7923C31.6889 20.6044 30.7966 20.9737 29.6672 21.4409Z" fill="#FEFEFD"/>
</g>
<defs>
<clipPath id="clip0">
<rect width="34" height="34" fill="white"/>
</clipPath>
</defs>
</svg>
