<svg width="36" height="36" viewBox="0 0 36 36" fill="none" xmlns="http://www.w3.org/2000/svg">
<g clip-path="url(#clip0)">
<path d="M0.0334124 12.3905C0.183922 13.0947 0.805733 13.5777 1.49895 13.5777C1.60296 13.5777 1.70806 13.5663 1.81389 13.5444L12.3239 11.2977C12.7919 11.197 13.1841 10.8799 13.38 10.4426L17.1021 2.1141C17.4397 1.35826 17.1006 0.470953 16.3448 0.132582C15.5849 -0.205789 14.7005 0.133314 14.3625 0.890254L10.9525 8.52264L7.85476 9.184L2.51736 4.26664C1.9069 3.70415 0.958805 3.7437 0.397784 4.35343C-0.163971 4.96242 -0.124787 5.91198 0.484207 6.47301L4.26085 9.95303L1.18695 10.61C0.37691 10.7832 -0.139069 11.5804 0.0334124 12.3905Z" fill="#FEFEFD"/>
<path d="M14.9865 36.0005C15.8144 36.0005 16.4864 35.3285 16.4864 34.5005V32.192C16.4864 32.0982 16.4773 32.0052 16.4601 31.9137L13.3591 15.4785C13.284 15.0819 13.0529 14.7318 12.716 14.5081C12.3817 14.2847 11.9678 14.206 11.5731 14.2898L1.18832 16.5046C0.378283 16.6771 -0.139161 17.4743 0.0340526 18.2844C0.205801 19.0944 0.999362 19.6097 1.8138 19.4386L10.6964 17.5443L11.7082 22.9051L7.81951 24.0239C7.34638 24.1604 6.96992 24.5197 6.81246 24.9862L5.3026 29.4627C5.03784 30.2482 5.46007 31.0992 6.24521 31.3633C6.40451 31.4171 6.56564 31.442 6.72457 31.442C7.35077 31.442 7.93413 31.0469 8.14653 30.4214L9.40517 26.6894L12.267 25.8651L13.4872 32.3315V34.4998C13.4865 35.3285 14.1577 36.0005 14.9865 36.0005Z" fill="#FEFEFD"/>
<path d="M19.7742 35.8962C19.9295 35.9471 20.0869 35.9712 20.2415 35.9712C20.8732 35.9712 21.4594 35.5699 21.6663 34.9385L21.9996 33.9231L32.7062 35.9405C33.5192 36.0935 34.3044 35.5585 34.4582 34.7441C34.6112 33.9304 34.0758 33.146 33.261 32.9922L21.2606 30.7301C20.5176 30.5884 19.7921 31.022 19.5574 31.7368L18.8151 34.0025C18.5584 34.7913 18.9868 35.6391 19.7742 35.8962Z" fill="#FEFEFD"/>
<path d="M31.1964 24.9007C31.7043 24.2459 31.5849 23.304 30.9302 22.7965C30.2754 22.2893 29.3343 22.4079 28.8249 23.0627L26.4753 26.0941L21.6876 25.0801L19.5281 10.9886L20.9171 7.48336L25.2852 9.81277C25.51 9.93252 25.7517 9.98965 25.9894 9.98965C26.5255 9.98965 27.0448 9.70108 27.3147 9.19462C27.7047 8.46331 27.4278 7.55513 26.6972 7.16513L22.0296 4.67605L23.0689 2.05331C23.3743 1.28319 22.9968 0.411626 22.2274 0.106213C21.4551 -0.198101 20.5857 0.178355 20.2799 0.948478L16.589 10.261C16.4908 10.5086 16.4608 10.7777 16.5015 11.041L18.8788 26.5599C18.9733 27.177 19.4399 27.6706 20.051 27.8003L34.189 30.7951C34.2937 30.8174 34.3974 30.828 34.501 30.828C35.1946 30.828 35.8171 30.3443 35.9673 29.6386C36.139 28.8278 35.6205 28.0321 34.8101 27.8603L29.7356 26.7855L31.1964 24.9007Z" fill="#FEFEFD"/>
</g>
<defs>
<clipPath id="clip0">
<rect width="36" height="36" fill="white"/>
</clipPath>
</defs>
</svg>
